<svg xmlns="http://www.w3.org/2000/svg" viewBox="0 0 800 800"><defs><style>.cls-1,.cls-2,.cls-3,.cls-4{fill-rule:evenodd;}.cls-2,.cls-3{fill:#fff;}.cls-3,.cls-4{stroke:#231f20;stroke-miterlimit:10;}.cls-3{stroke-width:4px;}.cls-4{fill:none;stroke-width:3px;}.cls-5{fill:#231f20;}</style></defs><g id="objects"><path class="cls-1" d="M311.9,249.32c13.27-23.64,26.33-45.56,38-68.06,16.83-32.44,34.86-64.45,46.36-99,1.93-5.77,3.71-11.62,6.2-17.19,1.11-2.5,3.56-5.88,5.85-6.19s6,2.1,7.7,4.25c8.81,11.43,16.86,23.35,25.75,34.73,14.34,18.37,23.43,39,32.62,59.64,5.74,12.9,13.59,25,20.59,37.45,3.4,6,7.07,12,10.57,18,1.37,2.34,2.18,5,4,7,11.34,12.71,21,26.24,26.78,41.88.37,1,1.36,1.84,2.47,3.29,7.75-5.95,12.72-12.72,17.17-19.87,1.23-2,2-4.38,3.67-5.88,2.49-2.2,5.85-5.37,8.51-5.13s6.54,3.67,7.47,6.38c4.65,13.7,8.29,27.68,12.75,41.44,2.68,8.28,6.38,16.28,9.35,24.48,7.25,20.06,14.54,40.12,21.46,60.28,4.9,14.28,9.23,28.71,14.35,44.76,4.49-3.48,7.82-6.11,11.21-8.68,8.68-6.58,14.1-5.2,16.95,4.55,3,10.21,5.57,20.52,8.46,30.76,8.87,31.5,15.18,63.33,17.47,95.86,1.81,25.69-6.57,49.27-16,72.72-4.82,12-11.78,23.43-16.11,35.6-6.31,17.73-18.85,30.84-34.33,42.14-18,13.13-37.39,23.67-60,29.51-26,6.72-51.53,15-77.43,22.18a129.84,129.84,0,0,1-24.52,4c-37.43,2.85-74.9,4.2-112.48,2.1-27.82-1.55-50.64-12.53-72.7-27.2-16.34-10.87-29.4-24.39-42.93-37.45-9.54-9.21-16.51-20.84-23.39-32-12.16-19.72-25.45-39.08-30.38-61.76-1.36-6.28-3.57-12.52-4-18.85-1.22-18.46-1.76-37-2.51-55.43-.92-22.81,2.64-45.19,8.13-67.36,6.69-27,10.12-54.32,11.52-81.89.08-1.51-.32-3.14.17-4.51.83-2.36,1.87-6.22,3.4-6.47a13.15,13.15,0,0,1,8.73,2.38c2.42,1.78,3.62,4.92,5.35,7.46l3.14-1.65c1.17-2.65,2.58-5.24,3.48-8,5.54-16.8,14.75-31.91,25-46.73,15.68-22.7,32.1-45.14,40.63-71.22a16.83,16.83,0,0,1,.82-2.14c4.51-9.21,10.76-10.24,17.56-2.51,3.34,3.79,5.85,8.22,8.45,12.5C308.79,242.15,309.86,245,311.9,249.32Zm-109,117.6c-5.24,29.09-10.09,57.79-15.66,86.37-3.56,18.26-6.68,36.49-6,55.08.67,18.11,1.27,36.22,2.4,54.31.38,6,2.34,11.85,3.59,17.77,4.65,21.93,17.37,40.73,29.05,59.8,7.64,12.47,16.15,24.78,26.24,35.66a223.94,223.94,0,0,0,36.91,31.72c20.74,14.37,43.09,24,69.59,25.21,31.7,1.44,63.35,1.41,95-1.13,12-1,24.35-1.29,35.81-4.25,28-7.23,55.5-16.17,83.4-23.78,23-6.28,41.78-18.42,59.13-32.85,8.41-7,14.54-15.34,19.52-24.68,14.21-26.67,23.29-54.91,31.77-83.33,1.71-5.74,2.06-12,2-18-.19-36.1-8-71.19-17.77-106-2.23-7.95-4.74-15.83-7.4-24.63-3.1,1.91-5.47,3.28-7.71,4.79-13,8.74-17.48,7.51-21.75-6.22-4.08-13.07-7.71-26.25-12.12-39.23-7.08-20.89-14.57-41.68-22-62.47-3.33-9.29-7.28-18.4-10.39-27.74-3.33-9.95-6-20.08-9.44-31.75-6.58,7.42-11.54,13.35-16.9,19-10.8,11.36-14.67,11.11-22.44-2-4.71-7.95-7.15-17.22-12.91-24.39a266,266,0,0,1-27.06-40.57c-8.91-16.6-18.06-33.1-26.74-49.8-5.85-11.25-10.31-23.14-16.77-34.08-7.06-12-15.63-23.17-23.72-34.6-2.33-3.31-5.28-6.25-8.83-10.4-1.66,3.31-2.6,4.93-3.3,6.62C401.44,98,395.59,115,387.49,131.11c-14.68,29.18-30.73,57.8-46.14,86.68-6.17,11.56-12,23.28-18.29,34.75-2.62,4.76-2.54,12.73-10.42,12.53-7.22-.18-8.33-7.62-11-12.48C298.47,247,296,241.05,292.67,234c-2.16,2.71-3.5,3.75-3.95,5.05-8.46,24.46-24,45.61-38.85,67-11.61,16.77-21.3,34.08-27.5,53.08C217.56,373.84,217.21,373.75,202.88,366.92Z"/><path class="cls-1" d="M636.82,291.4c1.89-5.69,3.07-11.25,5.54-16.27,4.79-9.74,8.3-19.64,9.37-30.34.56-5.57,2.35-11.11,4.28-16.45.79-2.2,3.49-5.45,5.21-5.4,2.73.09,6.75,2,7.82,4.1,7.41,14.67,15.66,29.12,17.38,45.63,1.36,13.11-7,22.95-13.26,33.46-4.94,8.25-10.41,16.25-15.9,24.2-1.18,1.71-3.55,3.85-5.29,3.8s-4.46-2.35-5-4.09C643.39,317.31,640.21,304.47,636.82,291.4Zm27.34-56.26-2.33,0c-.83,2.88-2.2,5.73-2.38,8.64-.8,13-5.06,25-11.67,36.53a17.37,17.37,0,0,0-2.45,9.7c.91,9.48,2.65,18.89,4.06,28.33l3.15.61c6.76-10.13,13.4-20.32,20.3-30.37,5.23-7.63,5.38-15.93,2.88-24C672.6,254.58,668.07,244.94,664.16,235.14Z"/><path class="cls-1" d="M207.45,279.81c-2-2.26-4-3.47-4.3-5-2.67-12.13-6.13-24.26-7.05-36.53-.47-6.26,2.74-13.31,6.13-19.13,5.92-10.18,10.36-20.49,11.1-32.06.12-1.91,1.85-3.74,6.14-7.61,1,2,2,4.06,2.89,6.11,2.75,6.25,5.27,12.58,8.2,18.76,7,14.67,8.08,29.08-1.51,43.26C222,258,215,268.51,207.45,279.81Zm11.94-75c-4.47,7.73-9.11,15.24-13.21,23-5.85,11.07-3.72,22,.69,33.67C227,240.47,233.46,222.8,219.39,204.77Z"/><path class="cls-1" d="M530.55,182.59c-15.49-11.17-16.31-27.16-18.93-42.17-2.15-12.29-2.12-24.82-.55-38.18C547.36,119.52,564,145.94,530.55,182.59ZM527.42,169c19.45-13.08,15.41-39.66-7.79-51.31C516.13,133.67,519.34,154.87,527.42,169Z"/><path class="cls-2" d="M664.16,235.14c3.91,9.8,8.44,19.44,11.56,29.43,2.5,8,2.35,16.33-2.88,24-6.9,10.05-13.54,20.24-20.3,30.37l-3.15-.61c-1.41-9.44-3.15-18.85-4.06-28.33a17.37,17.37,0,0,1,2.45-9.7c6.61-11.51,10.87-23.51,11.67-36.53.18-2.91,1.55-5.76,2.38-8.64Z"/><path class="cls-2" d="M219.39,204.77c14.07,18,7.65,35.7-12.52,56.66-4.41-11.68-6.54-22.6-.69-33.67C210.28,220,214.92,212.5,219.39,204.77Z"/><path class="cls-2" d="M527.42,169c-8.08-14.13-11.29-35.33-7.79-51.31C542.83,129.34,546.87,155.92,527.42,169Z"/><path class="cls-3" d="M591,605.59l13.2,3.25c-8.08,11.07-19.44,18-31.22,24.2-14.06,7.39-28.79,13.72-42.91,21-11.21,5.79-22.2,12-32.8,18.65a117.84,117.84,0,0,1-48.18,17.24c-17.82,2.39-35.51,5.43-53.43,3.82s-35.21-5.18-50.22-15.26c-6.64-4.45-14.15-7.9-21.54-11.33-8.53-3.95-16.86-7.73-24.14-13.79-5.64-4.7-13.19-8-20.47-10.51C260.34,636.3,249.06,622.8,236,607l16.17.81c.36-.93.72-1.4.59-1.6-16.37-25.2-13.09-52.52-8.69-79.28,3.46-21,4.64-42,5.59-63.14.33-7.08,1.07-14.14,1.72-22.38,4.72,1.34,8.06,2.49,11.52,3.23,6,1.29,9.07-.19,9.6-5.7,1.95-20.49,11.26-38.43,22.18-56,8.57-13.79,16.29-28,25.08-43.29,4.46,3.77,8.36,7,12.12,10.28,6.51,5.72,8.34,5,11.94-2.24,11.09-22.34,22.7-44.47,34.08-66.7,8.58-16.77,17.26-33.5,25.6-50.37,4.73-9.57,8.86-19.38,14-30.66,10.83,12.68,20.85,24.14,30.47,35.88,2.16,2.63,3,6.16,4.25,9.36,7.69,20.34,14.59,41,23.19,61,5.86,13.64,13.75,26.6,21.35,39.56,4.14,7.08,8,7.43,14.91,2.24,5.44-4.09,10.45-8.64,16.56-13.74,1.72,2.59,3.67,4.83,4.8,7.36,5.39,12,12,23.21,21.19,33.23,11.68,12.8,17.41,28.38,23.19,43.67,6.32,16.76,11.14,34,16.26,51.09,2.43,8.15,5,10.17,13.92,8.67,3.61-.6,7.08-1.85,11.6-3.08,2,22.95.73,45-6.24,66.57C606.09,562.93,598.47,583.92,591,605.59Z"/><path class="cls-4" d="M482.52,516.11c-1.89,1.42-3.73,2.83-5.61,4.2-12.8,9.34-15.75,8.39-19.14-5.84-2.72-11.42-3.93-23.46-8.88-34.05-10.54-22.53-23.08-44.3-34.85-66.36-.31-.58-1.24-.89-2.36-1.67-.77,2.25-1.56,4.29-2.15,6.38-8.39,29.45-22.14,56.75-39.75,82.6-2.68,3.92-3.76,9.1-4.2,13.8-.69,7.5.09,15.11-.33,22.64s-3.65,9.17-11.4,5.87c-4.38-1.87-8.61-4-13.08-6.13,0,10,.05,18.94,0,27.91-.2,35,15,63.74,44.43,86.12,13.28,10.1,29.34,12.06,46,8.66,12.11-2.47,23.93-6.22,36.09-8.43,14-2.54,19.85-7.62,24.1-19.69,5.72-16.25,4.35-32.8,4.79-49.35.59-22.19-7.59-43-11.84-64.44C484.21,517.68,483.39,517.14,482.52,516.11Z"/><path class="cls-5" d="M495.06,425.06c7.73,0,7.74-12,0-12s-7.73,12,0,12Z"/></g></svg>