<svg id="Layer_1" data-name="Layer 1" xmlns="http://www.w3.org/2000/svg" viewBox="0 0 204.13 576.17"><defs><style>.cls-1{fill:#231f20;}</style></defs><path class="cls-1" d="M159.6,637.91c9.8-34.93,4.14-72,1-107.42l-10-111.19q-5-55.05-9.92-110.11c-1.64-18.34-3.18-37-.77-55.32-.17,1.32.19-1.23.25-1.6.16-1.06.34-2.12.52-3.18.4-2.3.84-4.59,1.3-6.87.91-4.57,1.92-9.13,2.89-13.69,2-9.33,3.57-18.71,4.6-28.19,4-36.93-1.15-74.12-7-110.57q-1.06-6.7-2.16-13.41c-.85-5.17-7.55-8.52-12.3-7-5.61,1.81-7.89,6.75-7,12.3,1.46,8.95,2.91,17.89,4.25,26.86,1.36,9.14,2.26,15.81,3.28,25.42a336.08,336.08,0,0,1,1.87,54q-.37,6.74-1.12,13.44c-.12,1.07-.25,2.14-.39,3.22s0,.25,0,0c-.07.53-.15,1.07-.23,1.6-.34,2.32-.73,4.63-1.15,6.93-1.6,8.83-3.72,17.55-5.41,26.36-3.57,18.6-4,37.1-2.63,56,2.65,36.72,6.51,73.38,9.82,110l9.92,110.1c1.62,18,3.43,36,4.78,54.11.65,8.68,1.1,17.38,1,26.08,0,4.33-.19,8.65-.52,13q-.22,3.11-.59,6.18c0,.42-.4,2.91-.17,1.44-.19,1.19-.37,2.38-.57,3.57a129.37,129.37,0,0,1-2.86,12.62c-1.42,5,1.73,11.1,7,12.3a10.18,10.18,0,0,0,12.3-7Z" transform="translate(-52.3 -69)"/><path class="cls-1" d="M55.94,565q6.33,3.79,12.39,8,3.12,2.18,6.15,4.45l1.34,1,.67.52c-1.64-1.2-.88-.68-.51-.4L79,581a217.81,217.81,0,0,1,21.79,20.19q5.06,5.37,9.73,11.08,1.14,1.38,2.25,2.79l1,1.32c.75,1-.34-.44-.4-.52.26.33.51.67.77,1,1.46,1.92,2.87,3.88,4.29,5.83a76.56,76.56,0,0,0,9.76,11.57c3.74,3.45,8.25,6.63,13.3,7.74a20.94,20.94,0,0,0,16.79-3.3c4.45-3.23,7.92-7.45,11.38-11.67a217.18,217.18,0,0,0,18.72-26.56q4-6.66,7.43-13.62c2.26-4.57,4.23-9.26,6.41-13.86a60.46,60.46,0,0,1,3.65-6.77c.3-.48.62-1,.94-1.41l.5-.69c.71-1-.36.43-.4.51a13.16,13.16,0,0,1,2.55-2.83c.9-.88,1.86-1.69,2.83-2.49.4-.33,1.06-.6-.52.4.23-.15.45-.34.67-.51.56-.41,1.14-.82,1.71-1.21,2-1.41,4.12-2.72,6.18-4.07a84.63,84.63,0,0,0,22-20.83,78.89,78.89,0,0,0,12.44-25.91c.58-2.12,1-4.27,1.43-6.43a8.07,8.07,0,0,0-.76-5.78,7.63,7.63,0,0,0-4.48-3.45c-3.65-.83-8.5,1.11-9.22,5.24a72.51,72.51,0,0,1-4.6,15.59l.76-1.79a75.66,75.66,0,0,1-6.63,12.27c-.57.85-1.17,1.7-1.78,2.54-.16.22-1.44,1.91-.58.79s0,0-.13.15-.4.51-.61.76q-2.2,2.7-4.67,5.18c-1.6,1.6-3.27,3.13-5,4.57l-1.35,1.1c-.72.58,1.33-1,.59-.46-.25.2-.51.39-.77.58-1,.73-2,1.43-3,2.11-4.56,3.06-9.25,5.89-13.43,9.49-8.38,7.19-11.9,17.6-16.54,27.24a204.93,204.93,0,0,1-15.76,27.23c-1.67,2.43-3.4,4.84-5.18,7.2-.44.59-.88,1.18-1.34,1.76.08-.09,1.13-1.44.36-.46l-.82,1q-1.38,1.74-2.79,3.45c-1.78,2.17-3.59,4.33-5.52,6.38a37.65,37.65,0,0,1-3,2.81c-.75.65,1.61-1.09.39-.31-.29.18-.56.38-.85.55a15.9,15.9,0,0,1-2,1l1.8-.76a14.12,14.12,0,0,1-3.55,1l2-.27a13.83,13.83,0,0,1-3.34,0l2,.27a16.26,16.26,0,0,1-3.86-1.12l1.8.76a22.24,22.24,0,0,1-4-2.28,3.07,3.07,0,0,1-.59-.43c-.1-.11,1.4,1.12.79.61-.28-.24-.58-.47-.86-.72-.67-.57-1.32-1.17-1.95-1.79-1.19-1.18-2.32-2.42-3.4-3.7-.55-.65-1.07-1.3-1.6-2-.8-1,1,1.33.23.31-.3-.41-.61-.81-.91-1.21-4.63-6.26-9.24-12.5-14.32-18.4a226.16,226.16,0,0,0-33.6-31.57,219,219,0,0,0-20.71-14.12c-3.37-2-8.39-.86-10.27,2.7A7.65,7.65,0,0,0,55.94,565Z" transform="translate(-52.3 -69)"/></svg>